<svg class="svg-icon" style="width: 1em;height: 1em;vertical-align: middle;fill: currentColor;overflow: hidden;" viewBox="0 0 1024 1024" version="1.1" xmlns="http://www.w3.org/2000/svg"><path d="M608.632515 510.831383a97.832086 97.832086 0 1 0-97.832086 97.832086 97.952717 97.952717 0 0 0 97.832086-97.832086z" fill="currentColor" /><path d="M980.5392 471.746801H904.782665a5.669677 5.669677 0 0 1-5.549046-5.187151 391.569607 391.569607 0 0 0-347.780399-344.523351 1.447577 1.447577 0 0 1-1.447577-1.568209V39.283141a39.084582 39.084582 0 0 0-12.063143-28.469016A38.481425 38.481425 0 0 0 508.749695 0.077928a40.411528 40.411528 0 0 0-37.033848 41.014685V120.709353a2.050734 2.050734 0 0 1-1.930102 2.050735 391.207713 391.207713 0 0 0-347.297874 343.799562 6.393466 6.393466 0 0 1-6.272834 5.790308H39.252187A39.205213 39.205213 0 0 0 0.046974 513.002749a40.773422 40.773422 0 0 0 41.014685 37.033847h77.566006a3.618943 3.618943 0 0 1 3.618943 3.37768 391.448975 391.448975 0 0 0 344.282088 345.970928 5.669677 5.669677 0 0 1 5.187151 5.549046v77.686638a39.205213 39.205213 0 1 0 78.289796 0V904.813618a5.428414 5.428414 0 0 1 4.825257-5.307782A391.087081 391.087081 0 0 0 899.233619 554.982485a5.187151 5.187151 0 0 1 5.06652-4.583994h78.169164a39.205213 39.205213 0 0 0 39.084581-41.255948 40.65279 40.65279 0 0 0-41.014684-37.395742z m-442.717331 274.798387a38.843319 38.843319 0 0 0-27.02144-10.615565h-2.050734a40.532159 40.532159 0 0 0-37.033848 41.014685v38.481424a5.790308 5.790308 0 0 1-1.809471 3.980837 5.06652 5.06652 0 0 1-3.980837 1.085683 314.244863 314.244863 0 0 1-265.389136-269.611236l-5.187151 0.603157 5.91094-1.326945h45.478047a39.205213 39.205213 0 0 0 39.084582-41.255948 40.65279 40.65279 0 0 0-41.014685-37.033847h-40.411527a3.860206 3.860206 0 0 1-2.653892-1.206315 3.257048 3.257048 0 0 1-0.723788-2.653891A313.641706 313.641706 0 0 1 470.509533 200.80862a1.326946 1.326946 0 0 1 1.206314 0 1.447577 1.447577 0 0 1 0.603158 1.206314v44.392365a38.96395 38.96395 0 0 0 41.135316 39.084581 40.65279 40.65279 0 0 0 37.154479-41.014684V201.532408l0.84442-0.84442A314.244863 314.244863 0 0 1 820.340667 465.353336a5.187151 5.187151 0 0 1-1.206314 4.342731 5.790308 5.790308 0 0 1-4.463363 2.050734h-39.80837A39.205213 39.205213 0 0 0 735.898669 513.002749a40.773422 40.773422 0 0 0 41.014685 37.033847h37.998899a5.790308 5.790308 0 0 1 4.2221 1.930103 5.549046 5.549046 0 0 1 1.326945 4.2221A315.209915 315.209915 0 0 1 554.951531 820.371621a4.2221 4.2221 0 0 1-3.37768-1.085683 4.463363 4.463363 0 0 1-1.568208-3.37768v-41.014685a38.722688 38.722688 0 0 0-12.183774-28.348385z" fill="currentColor" /></svg>
